#!OML:ASF F:\VICON\USERDATA\INSTALL\rory3\rory3.ASF
:FULLY-SPECIFIED
:DEGREES
337
root -0.431581 16.1952 7.43287 2.3694 0.632224 6.37741
lowerback 12.4733 -0.0689131 -10.3327
upperback -4.83988 -1.82737 0.747472
thorax -12.1139 -0.0147575 7.09354
lowerneck -10.7702 -4.63611 -3.50599
upperneck 19.7316 -6.17851 1.97358
head 8.05001 -3.01226 0.605411
rclavicle -3.50358e-015 1.15295e-014
rhumerus -48.5058 -3.6119 -83.8648
rradius 23.1409
rwrist 10.7393
rhand -11.8136 26.6507
rfingers 7.12502
rthumb 14.2367 -2.84135
lclavicle -3.50358e-015 1.15295e-014
lhumerus -31.734 -2.88669 89.5536
lradius 33.2111
lwrist 5.82006
lhand -6.2852 17.2617
lfingers 7.12502
lthumb 19.5582 46.298
rfemur -38.1456 26.3393 1.88055
rtibia 25.1732
rfoot -18.0001 -19.2155
rtoes 26.2719
lfemur 17.8112 -13.5521 -35.6054
ltibia -6.36111e-015
lfoot -12.0317 10.1575
ltoes -1.94386
338
root -0.449362 16.1787 7.58339 2.32171 1.00946 6.38367
lowerback 12.4527 -0.144689 -10.2781
upperback -4.78982 -1.91325 0.754619
thorax -12.0256 -0.0668977 7.0868
lowerneck -10.7803 -4.60022 -3.42556
upperneck 19.7436 -6.12843 1.90144
head 8.0492 -2.98917 0.573528
rclavicle 1.89591e-014 -2.10712e-014
rhumerus -48.4011 -3.46992 -83.9904
rradius 23.0946
rwrist 10.6221
rhand -11.6664 24.8868
rfingers 7.12502
rthumb 14.3785 -4.59518
lclavicle 1.89591e-014 -2.10712e-014
lhumerus -31.461 -2.90434 89.637
lradius 32.8303
lwrist 5.95191
lhand -6.49268 16.7019
lfingers 7.12502
lthumb 19.3587 45.7583
rfemur -38.0387 26.8296 1.55519
rtibia 24.816
rfoot -19.1006 -19.3554
rtoes 27.5254
lfemur 18.4715 -13.5492 -35.6279
ltibia 3.49861e-014
lfoot -12.0492 10.1371
ltoes -4.09883
339
root -0.457678 16.1605 7.72635 2.39448 1.28403 6.58981
lowerback 12.4901 -0.161741 -10.2445
upperback -4.82841 -1.94988 0.641187
thorax -12.0894 -0.08717 6.9501
lowerneck -10.6614 -4.70212 -3.53477
upperneck 19.6956 -6.28212 2.04827
head 8.02495 -3.05732 0.62684
rclavicle 2.29348e-014 -8.74653e-015
rhumerus -48.4275 -3.59971 -83.9543
rradius 23.0575
rwrist 10.7446
rhand -11.9884 25.2735
rfingers 7.12502
rthumb 14.0682 -4.23029
lclavicle 2.29348e-014 -8.74653e-015
lhumerus -31.4005 -2.99301 89.7364
lradius 32.6954
lwrist 6.10304
lhand -6.90477 16.065
lfingers 7.12502
lthumb 18.9624 45.1607
rfemur -37.9862 26.5074 1.34707
rtibia 24.6462
rfoot -19.2048 -19.1313
rtoes 27.1964
lfemur 18.9642 -13.4802 -35.8489
ltibia 1.27222e-014
lfoot -12.0353 10.0215
ltoes -5.57504
340
root -0.470083 16.1394 7.87122 2.48457 1.44565 6.69459
lowerback 12.5661 -0.181997 -10.2062
upperback -4.91187 -1.99101 0.585345
thorax -12.2266 -0.100673 6.87926
lowerneck -10.5836 -4.84801 -3.51857
upperneck 19.5976 -6.48465 2.03499
head 7.98341 -3.15493 0.601506
rclavicle -1.23495e-014 3.49861e-014
rhumerus -48.5031 -3.61209 -83.9486
rradius 23.0491
rwrist 10.6676
rhand -11.8025 25.2795
rfingers 7.12502
rthumb 14.2473 -4.21185
lclavicle -1.23495e-014 3.49861e-014
lhumerus -31.4054 -2.91457 89.781
lradius 32.3926
lwrist 5.99198
lhand -6.68369 16.689
lfingers 7.12502
lthumb 19.175 45.7637
rfemur -37.8869 25.7625 1.58881
rtibia 24.6764
rfoot -18.5837 -18.7167
rtoes 26.7797
lfemur 19.4801 -13.306 -35.9479
ltibia -2.22639e-014
lfoot -12.1145 9.84276
ltoes -6.67224
341
root -0.492074 16.1138 8.02031 2.53812 1.57808 6.7466
lowerback 12.5372 -0.218541 -10.3346
upperback -4.97511 -2.05916 0.623913
thorax -12.2666 -0.115653 7.01089
lowerneck -10.4279 -4.89793 -3.44564
upperneck 19.4855 -6.54361 1.90994
head 7.91283 -3.19195 0.54781
rclavicle -5.46658e-015 7.95139e-015
rhumerus -48.487 -3.68527 -83.7833
rradius 22.8899
rwrist 10.9008
rhand -10.9378 24.789
rfingers 7.12502
rthumb 15.0804 -4.64166
lclavicle -5.46658e-015 7.95139e-015
lhumerus -31.5488 -2.66105 89.8009
lradius 32.179
lwrist 5.74414
lhand -6.52688 16.7025
lfingers 7.12502
lthumb 19.3258 45.7622
rfemur -37.7195 25.1417 1.95479
rtibia 24.8247
rfoot -18.4132 -17.8668
rtoes 28.906
lfemur 20.0393 -13.1059 -35.9395
ltibia -3.18055e-015
lfoot -12.2449 9.61488
ltoes -7.79097
342
root -0.516287 16.0769 8.17099 2.48734 1.78455 6.69747
lowerback 12.54 -0.279253 -10.3559
upperback -4.97553 -2.1358 0.704279
thorax -12.2501 -0.146926 7.13032
lowerneck -10.3106 -4.85499 -3.66246
upperneck 19.5438 -6.46918 2.0049
head 7.92007 -3.16427 0.624274
rclavicle -1.01877e-015 -7.95139e-016
rhumerus -48.4066 -3.78437 -83.5494
rradius 22.7587
rwrist 11.286
rhand -12.6818 29.6398
rfingers 7.12502
rthumb 13.3999 0.0907066
lclavicle -1.01877e-015 -7.95139e-016
lhumerus -31.6471 -2.42409 89.8699
lradius 32.007
lwrist 5.77513
lhand -6.86692 16.158
lfingers 7.12502
lthumb 18.9988 45.2501
rfemur -37.3769 24.6217 2.49564
rtibia 25.0847
rfoot -18.5248 -16.7294
rtoes 32.9826
lfemur 20.6757 -12.9587 -35.798
ltibia -2.8625e-014
lfoot -12.3319 9.23598
ltoes -7.54529
343
root -0.540504 16.0511 8.3284 2.39957 1.93862 6.70107
lowerback 12.5135 -0.285644 -10.3659
upperback -4.8999 -2.13575 0.725273
thorax -12.145 -0.154731 7.15658
lowerneck -10.3579 -4.84582 -3.71878
upperneck 19.4195 -6.44232 2.01653
head 7.88893 -3.15423 0.640128
rclavicle 7.30534e-015 8.34896e-015
rhumerus -48.286 -3.67525 -83.5756
rradius 22.8432
rwrist 11.0853
rhand -12.8467 30.2554
rfingers 7.12502
rthumb 13.241 0.695949
lclavicle 7.30534e-015 8.34896e-015
lhumerus -31.5864 -2.22226 89.878
lradius 31.6133
lwrist 5.37457
lhand -6.83961 15.9073
lfingers 7.12502
lthumb 19.0251 44.9968
rfemur -36.9027 24.0886 3.09187
rtibia 25.4294
rfoot -18.515 -15.7556
rtoes 36.7251
lfemur 21.3641 -12.7543 -35.7134
ltibia -3.49861e-014
lfoot -12.2424 8.73072
ltoes -6.62538
344
root -0.563779 16.0249 8.48831 2.33909 2.11212 6.65487
lowerback 12.4243 -0.299433 -10.2846
upperback -4.83743 -2.12213 0.752859
thorax -12.0209 -0.163858 7.13287
lowerneck -10.3939 -4.86185 -3.62562
upperneck 19.3162 -6.45444 1.90731
head 7.85445 -3.16343 0.588201
rclavicle -2.09469e-014 -7.95139e-016
rhumerus -48.1123 -3.825 -83.3963
rradius 22.7196
rwrist 11.1529
rhand -13.6254 32.7518
rfingers 7.12502
rthumb 12.4903 3.1451
lclavicle -2.09469e-014 -7.95139e-016
lhumerus -31.6601 -2.03446 89.9096
lradius 31.3318
lwrist 4.84504
lhand -7.40577 15.0661
lfingers 7.12502
lthumb 18.4805 44.2082
rfemur -36.4446 23.3695 3.82828
rtibia 25.9375
rfoot -18.335 -14.8433
rtoes 39.3772
lfemur 22.0624 -12.5729 -35.5824
ltibia -3.18055e-014
lfoot -11.8994 8.29353
ltoes -5.61395
